<?xml version="1.0" encoding="UTF-8"?>
<svg version="1.1" xmlns="http://www.w3.org/2000/svg" width="1191" height="1102">
<path d="M0 0 C0.89589844 0.68449219 1.79179688 1.36898437 2.71484375 2.07421875 C20.33251267 15.79540482 36.80678758 31.98013065 50 50 C50.82244754 51.09280114 51.64536382 52.18524966 52.46875 53.27734375 C64.90258604 69.99607855 74.72035632 88.62073668 85.07666016 106.65332031 C88.21054207 112.10638623 91.35574277 117.55291228 94.5 123 C95.75005639 125.16663414 97.00005634 127.33330083 98.25 129.5 C99.178125 131.10875 99.178125 131.10875 100.125 132.75 C180.75000001 272.50000001 180.75000001 272.50000001 182.62524414 275.75048828 C183.87435518 277.91557071 185.12354129 280.08060982 186.37280273 282.24560547 C189.51202309 287.68615706 192.64990563 293.12747216 195.78515625 298.5703125 C201.80747329 309.02206199 207.84669337 319.46299548 213.9375 329.875 C219.35921178 339.14499777 224.70204915 348.45831752 230.01922607 357.78845215 C235.22045129 366.9128284 240.48027878 376.00132774 245.78344727 385.06689453 C251.93766742 395.59084625 258.02369996 406.15380137 264.10888672 416.71777344 C267.23680148 422.14659942 270.36858448 427.57319281 273.5 433 C274.75001879 435.16665583 276.00001878 437.3333225 277.25 439.5 C277.86875 440.5725 278.4875 441.645 279.125 442.75 C311 498 342.875 553.25 374.75 608.5 C375.67872925 610.10959595 375.67872925 610.10959595 376.6262207 611.75170898 C377.87262167 613.912408 379.11855483 616.07337694 380.36401367 618.23461914 C383.54024253 623.74492958 386.72516064 629.2499103 389.92578125 634.74609375 C400.96949819 653.73295617 411.39678604 672.35007504 419 693 C419.27295898 693.72977051 419.54591797 694.45954102 419.82714844 695.21142578 C424.85113986 708.79607501 428.18739988 722.80708715 431 737 C431.27336182 738.37744385 431.27336182 738.37744385 431.55224609 739.78271484 C436.8002737 767.96540638 436.59852636 800.89999922 431 829 C430.81195801 830.01449219 430.62391602 831.02898438 430.43017578 832.07421875 C418.58470348 895.17468216 383.3815318 955.87175869 331 994 C330.33355469 994.48952148 329.66710938 994.97904297 328.98046875 995.48339844 C314.38448241 1006.15959067 299.33014926 1015.24298662 283 1023 C282.32163086 1023.3285498 281.64326172 1023.65709961 280.94433594 1023.99560547 C219.33704633 1053.66963848 146.12772791 1055.10753017 82 1033 C36.0937942 1016.44710151 -7.28324172 987.10382091 -37 948 C-37.41668945 947.45972168 -37.83337891 946.91944336 -38.26269531 946.36279297 C-55.79759812 923.55207148 -71.39873096 899.17290454 -67.50390625 869.1796875 C-63.85010691 849.07346968 -54.07625512 832.37041154 -37.796875 819.8828125 C-20.5873716 808.29764401 -0.82051927 804.5117432 19.5625 808.125 C32.50820892 811.04386548 42.90589046 816.43880681 53 825 C53.75539063 825.61875 54.51078125 826.2375 55.2890625 826.875 C61.54572982 832.51737634 65.72014037 839.48779586 70.19189453 846.54516602 C74.38006057 853.13842359 78.75170952 859.19338074 84 865 C84.59425781 865.67546875 85.18851563 866.3509375 85.80078125 867.046875 C103.29420308 885.77644869 128.09494981 896.7214401 153 901 C154.10601563 901.19722656 154.10601563 901.19722656 155.234375 901.3984375 C184.37835929 905.57800114 216.38116296 897.3453053 240.03466797 879.91870117 C266.16797548 859.95019328 283.59892582 832.09380049 288.0546875 799.2434082 C292.48349449 761.77888847 278.61664682 732.60312532 259.85742188 701.13427734 C256.71132615 695.82544757 253.6390411 690.47433734 250.5625 685.125 C249.30349533 682.94004083 248.04438039 680.75514519 246.78515625 678.5703125 C246.16012207 677.48524414 245.53508789 676.40017578 244.89111328 675.28222656 C241.76319852 669.85340058 238.63141552 664.42680719 235.5 659 C234.24998121 656.83334417 232.99998122 654.6666775 231.75 652.5 C230.821875 650.89125 230.821875 650.89125 229.875 649.25 C119.25 457.5 119.25 457.5 117.37475586 454.24951172 C116.12564482 452.08442929 114.87645871 449.91939018 113.62719727 447.75439453 C110.48797691 442.31384294 107.35009437 436.87252784 104.21484375 431.4296875 C98.19252671 420.97793801 92.15330663 410.53700452 86.0625 400.125 C80.64078822 390.85500223 75.29795085 381.54168248 69.98077393 372.21154785 C64.77954871 363.0871716 59.51972122 353.99867226 54.21655273 344.93310547 C48.06233258 334.40915375 41.97630004 323.84619863 35.89111328 313.28222656 C32.76319852 307.85340058 29.63141552 302.42680719 26.5 297 C25.24998121 294.83334417 23.99998122 292.6666775 22.75 290.5 C21.821875 288.89125 21.821875 288.89125 20.875 287.25 C-29.75 199.5 -29.75 199.5 -31.62646484 196.24707031 C-32.87113079 194.08990885 -34.11624486 191.93300588 -35.36181641 189.77636719 C-38.57222658 184.21636381 -41.77375095 178.65147164 -44.9609375 173.078125 C-65.6736922 136.90138677 -88.04991726 107.31501836 -129.80761719 95.5859375 C-150.71704763 89.99767101 -172.1286197 90.45372673 -193 96 C-193.66257812 96.17128418 -194.32515625 96.34256836 -195.0078125 96.51904297 C-212.15913714 101.1112572 -227.789364 110.2668125 -241 122 C-241.88945313 122.78890625 -242.77890625 123.5778125 -243.6953125 124.390625 C-257.14023983 137.1190515 -265.59679241 153.0207785 -274.39550781 169.09716797 C-276.50795862 172.91899391 -278.70414502 176.68540739 -280.9375 180.4375 C-285.07409109 187.40714901 -289.14121906 194.41502467 -293.1875 201.4375 C-294.14450806 203.09833618 -294.14450806 203.09833618 -295.12084961 204.79272461 C-296.42889477 207.06337068 -297.73675448 209.33412358 -299.04443359 211.60498047 C-302.19332054 217.0716998 -305.34683264 222.53574887 -308.5 228 C-309.7500235 230.16665311 -311.00002347 232.33331979 -312.25 234.5 C-324.75 256.16666667 -337.25 277.83333333 -349.75 299.5 C-350.36883057 300.57266113 -350.98766113 301.64532227 -351.62524414 302.75048828 C-352.87435518 304.91557071 -354.12354129 307.08060982 -355.37280273 309.24560547 C-358.51202309 314.68615706 -361.64990563 320.12747216 -364.78515625 325.5703125 C-370.80747329 336.02206199 -376.84669337 346.46299548 -382.9375 356.875 C-388.01275123 365.55262241 -393.02258767 374.26605568 -398 383 C-403.5400173 392.72115617 -409.13374809 402.40894658 -414.78344727 412.06689453 C-420.93766742 422.59084625 -427.02369996 433.15380137 -433.10888672 443.71777344 C-436.23680148 449.14659942 -439.36858448 454.57319281 -442.5 460 C-443.75001879 462.16665583 -445.00001878 464.3333225 -446.25 466.5 C-558.75 661.5 -558.75 661.5 -560.62573242 664.7512207 C-561.8733474 666.91378583 -563.12090616 669.07638339 -564.3684082 671.23901367 C-568.17010829 677.82932207 -571.97402175 684.41834706 -575.77929688 691.0065918 C-577.66082382 694.26628427 -579.53964095 697.52752577 -581.41796875 700.7890625 C-583.72245875 704.79012858 -586.0378835 708.78449125 -588.36328125 712.7734375 C-606.91657531 744.69985513 -616.70348094 776.73231982 -607.29980469 813.75683594 C-598.45258227 844.92799316 -578.96338021 870.48154756 -551 887 C-522.71611658 902.6766409 -489.89272154 906.11040511 -458.84375 897.40820312 C-424.2084096 886.92826382 -401.6786479 863.72197718 -384 833 C-382.81031331 830.94767461 -381.62019545 828.8955991 -380.4296875 826.84375 C-377.24899537 821.35154001 -374.08415467 815.85034766 -370.92333984 810.34667969 C-367.78945793 804.89361377 -364.64425723 799.44708772 -361.5 794 C-360.24994361 791.83336586 -358.99994366 789.66669917 -357.75 787.5 C-340.25 757.16666667 -322.75 726.83333333 -305.25 696.5 C-304.63068604 695.42645264 -304.01137207 694.35290527 -303.37329102 693.24682617 C-302.12923208 691.09059787 -300.88493058 688.93450951 -299.64038086 686.77856445 C-296.42243216 681.20334498 -293.20926137 675.62543772 -290.00390625 670.04296875 C-286.35210426 663.6858788 -282.68153363 657.33990865 -279 651 C-278.58137695 650.27409668 -278.16275391 649.54819336 -277.73144531 648.80029297 C-266.68280822 629.71315858 -252.85656626 616.98270532 -231.8125 609.625 C-225.02206277 607.81573077 -218.38341572 607.61107267 -211.375 607.5625 C-210.33835205 607.55234863 -209.3017041 607.54219727 -208.23364258 607.53173828 C-197.77915802 607.6492137 -188.15384201 609.84000363 -178.875 614.6875 C-177.85780884 615.21077881 -177.85780884 615.21077881 -176.82006836 615.74462891 C-158.51045088 625.45424151 -147.17469636 641.12396036 -140.9453125 660.5546875 C-134.60941243 683.64668693 -141.05540544 704.07627084 -152.38769531 724.17431641 C-156.91515851 732.10903159 -161.51669801 739.99753764 -166.15869141 747.86572266 C-169.28305019 753.18400933 -172.35966918 758.52969481 -175.4375 763.875 C-176.05979492 764.95483154 -176.68208984 766.03466309 -177.32324219 767.1472168 C-178.58532251 769.33728778 -179.84720372 771.52747353 -181.10888672 773.71777344 C-184.23680148 779.14659942 -187.36858448 784.57319281 -190.5 790 C-191.75001879 792.16665583 -193.00001878 794.3333225 -194.25 796.5 C-206.75 818.16666667 -219.25 839.83333333 -231.75 861.5 C-232.36915283 862.5732251 -232.98830566 863.6464502 -233.6262207 864.75219727 C-234.8720577 866.91159395 -236.11798818 869.07093669 -237.36401367 871.23022461 C-240.55348953 876.75767597 -243.74116885 882.28615121 -246.92578125 887.81640625 C-250.05978087 893.25822618 -253.20009909 898.69635711 -256.34423828 904.13232422 C-257.82737919 906.70103155 -259.30322239 909.27376776 -260.77734375 911.84765625 C-272.08330083 931.48109583 -285.26834942 949.66633728 -301 966 C-301.63212402 966.65935547 -302.26424805 967.31871094 -302.91552734 967.99804688 C-312.05866376 977.48494274 -321.33829949 986.25327496 -332 994 C-332.65436035 994.48275391 -333.3087207 994.96550781 -333.98291016 995.46289062 C-377.01771834 1027.12675422 -429.29804597 1046.66902485 -483 1048 C-483.71542969 1048.02046387 -484.43085938 1048.04092773 -485.16796875 1048.06201172 C-553.4762654 1049.79260299 -621.85533712 1025.26154846 -671.734375 978.13671875 C-672.8244799 977.09277575 -673.91288043 976.04705145 -675 975 C-675.65935547 974.36787598 -676.31871094 973.73575195 -676.99804688 973.08447266 C-685.94262536 964.46400265 -694.35616973 955.74266096 -701.72167969 945.72705078 C-703.03375446 943.95439667 -704.37693348 942.20903121 -705.7265625 940.46484375 C-747.5276025 885.85012341 -762.88562039 814.43179007 -754.62548828 746.93994141 C-748.6053205 703.76256833 -730.77270848 666.23259508 -708.82519531 629.10205078 C-705.70331232 623.79618598 -702.63394814 618.46016737 -699.5625 613.125 C-698.30339161 610.94010059 -697.04427701 608.75520477 -695.78515625 606.5703125 C-695.16012207 605.48524414 -694.53508789 604.40017578 -693.89111328 603.28222656 C-690.76319852 597.85340058 -687.63141552 592.42680719 -684.5 587 C-683.24998121 584.83334417 -681.99998122 582.6666775 -680.75 580.5 C-663.25 550.16666667 -645.75 519.83333333 -628.25 489.5 C-627.63116943 488.42733887 -627.01233887 487.35467773 -626.37475586 486.24951172 C-625.12564482 484.08442929 -623.87645871 481.91939018 -622.62719727 479.75439453 C-619.48797691 474.31384294 -616.35009437 468.87252784 -613.21484375 463.4296875 C-607.19252671 452.97793801 -601.15330663 442.53700452 -595.0625 432.125 C-589.98724877 423.44737759 -584.97741233 414.73394432 -580 406 C-574.4599827 396.27884383 -568.86625191 386.59105342 -563.21655273 376.93310547 C-557.06233258 366.40915375 -550.97630004 355.84619863 -544.89111328 345.28222656 C-541.76319852 339.85340058 -538.63141552 334.42680719 -535.5 329 C-534.24998121 326.83334417 -532.99998122 324.6666775 -531.75 322.5 C-494.25 257.5 -456.75 192.5 -419.25 127.5 C-418.63092773 126.42685547 -418.01185547 125.35371094 -417.37402344 124.24804688 C-416.12757939 122.08771707 -414.88083598 119.92755997 -413.63378906 117.76757812 C-410.45186969 112.25535607 -407.27567286 106.73996208 -404.109375 101.21875 C-382.20075042 63.04626168 -358.14155198 26.30724547 -322 0 C-321.33355469 -0.48952148 -320.66710937 -0.97904297 -319.98046875 -1.48339844 C-306.03515895 -11.68365519 -291.66594846 -20.59523813 -276.05810547 -28.02050781 C-274.69982041 -28.66694193 -273.34458016 -29.3198181 -271.99267578 -29.97949219 C-185.45813645 -72.02310448 -75.48304073 -58.9059972 0 0 Z " fill="#0078D2" transform="translate(757,54)"/>
<path d="M0 0 C1.01320313 0.71671875 2.02640625 1.4334375 3.0703125 2.171875 C33.06836872 24.00065497 50.80295117 55.44490167 56.62109375 91.890625 C60.4260267 126.29014908 52.03377134 161.88378041 30.34765625 189.23046875 C6.6058584 217.23867952 -23.57284744 235.93498212 -60.57885742 239.80151367 C-98.52322701 242.9122097 -132.45914003 231.47340171 -161.42529297 207.06884766 C-186.38064974 185.58018764 -202.5151529 153.90087026 -205 121 C-206.98623993 85.46027581 -197.9132711 50.85245773 -174.1640625 23.70703125 C-171.50665671 20.74153361 -168.76124825 17.8687735 -166 15 C-165.41992188 14.35675781 -164.83984375 13.71351563 -164.2421875 13.05078125 C-123.79106702 -30.55105464 -47.04780304 -33.54712912 0 0 Z " fill="#0078D2" transform="translate(670,389)"/>
</svg>
